P2
8 8
255
77 74 102 128 156 184 212 239
48 48 80 111 143 175 207 238
48 48 80 111 143 175 207 238
48 48 80 111 143 175 207 238
48 48 80 111 143 175 207 238
48 48 80 111 143 175 207 238
48 48 80 111 143 175 207 238
77 74 102 128 156 184 212 239
