P2
48 48
255
0
0
0
0
0
0
0
0
0
0
0
0
0
0
0
0
0
0
0
0
0
0
0
0
0
0
0
0
0
0
0
0
0
0
0
0
0
0
0
0
0
0
0
0
0
0
0
0
0
0
0
0
0
0
0
0
0
0
0
0
0
0
0
0
0
0
0
0
0
0
0
0
0
0
0
0
0
0
0
0
0
0
0
0
0
0
0
0
0
0
0
0
0
0
0
0
0
0
0
0
0
0
0
0
0
0
0
0
0
0
0
0
0
0
0
0
0
0
0
0
0
0
0
0
0
0
0
0
0
0
0
0
0
0
0
0
0
0
0
0
0
0
0
0
0
0
0
0
0
0
0
0
0
0
0
0
0
0
0
0
0
0
0
0
0
0
0
0
0
0
0
0
0
0
0
0
0
0
0
0
0
0
0
0
0
0
0
0
0
0
0
0
0
0
0
0
0
0
0
0
0
0
0
0
0
0
0
0
0
0
0
0
0
0
0
0
0
0
0
0
0
0
0
0
0
0
0
0
0
0
0
0
0
0
0
0
0
0
0
0
0
0
0
0
0
0
0
0
0
0
0
0
0
0
0
0
0
0
0
0
0
0
0
0
0
0
0
0
0
0
0
0
0
0
0
0
0
0
0
0
0
0
0
0
0
0
0
0
0
0
0
0
0
0
0
0
0
0
0
0
0
0
0
0
0
0
0
0
0
0
0
0
0
0
0
0
0
0
0
0
0
0
0
0
0
0
0
0
0
0
0
0
0
0
0
0
0
0
0
0
0
0
0
0
0
0
0
0
0
0
0
0
0
0
0
0
0
0
0
0
0
0
0
0
0
0
0
0
0
0
0
0
0
0
0
0
0
0
0
0
0
0
0
0
0
0
0
0
0
0
0
0
0
0
0
0
0
0
0
0
0
0
0
0
0
0
0
0
0
0
0
0
0
0
0
0
0
0
0
0
0
0
0
0
0
0
0
0
0
0
0
0
0
0
0
0
0
0
0
0
0
0
0
0
0
0
0
0
0
0
0
0
0
0
0
0
0
0
0
0
0
0
0
0
0
0
0
0
0
0
0
0
0
0
0
0
0
0
0
0
0
0
0
0
0
0
0
0
0
0
0
0
0
0
0
0
0
0
0
0
0
0
0
0
0
0
0
0
0
0
0
0
0
0
0
0
0
0
0
0
0
0
0
0
0
0
0
0
0
0
0
0
0
0
0
0
0
0
0
0
0
0
0
0
0
0
0
0
0
0
0
0
0
0
0
0
0
0
0
0
0
0
0
0
0
0
0
0
0
0
0
0
0
0
0
0
0
0
0
0
0
0
0
0
0
0
0
0
0
0
0
0
0
0
0
0
0
0
0
0
0
0
0
0
0
0
0
0
0
0
0
0
0
0
0
0
0
0
0
0
0
0
0
0
0
0
0
0
0
0
0
0
0
0
0
0
0
0
0
0
0
0
0
0
0
0
0
0
0
0
0
0
0
0
0
0
0
0
0
0
0
0
0
0
0
0
0
0
0
0
0
0
0
0
0
62
133
174
197
203
198
175
0
0
0
0
0
0
0
0
0
40
96
154
188
202
203
190
156
102
42
0
0
0
0
0
0
0
61
131
172
197
203
198
175
134
65
0
0
0
0
0
72
166
156
84
43
33
43
83
155
165
73
0
0
0
0
0
14
125
180
121
57
35
35
56
118
181
132
22
0
0
0
0
0
64
161
159
88
44
33
42
79
150
170
80
0
0
0
71
168
108
18
1
0
0
0
1
18
109
171
75
1
0
0
22
132
152
57
7
0
0
0
0
6
50
148
139
27
0
0
1
66
166
115
21
1
0
0
0
1
16
101
171
81
0
64
166
110
7
0
0
0
0
0
0
0
8
105
165
36
0
0
96
165
45
0
0
0
0
0
0
0
0
41
158
105
1
0
27
158
110
8
0
0
0
0
0
0
0
5
103
168
66
137
155
18
1
0
0
0
0
0
0
0
0
15
160
111
2
26
159
79
0
0
0
0
0
0
0
0
0
0
69
157
25
3
108
167
23
0
0
0
0
0
0
0
0
0
9
142
134
176
82
1
1
0
0
0
0
0
0
0
0
1
90
159
19
66
168
25
0
0
0
0
0
0
0
0
0
0
22
169
87
18
154
98
2
0
0
0
0
0
0
0
0
0
0
74
179
201
44
1
1
0
0
0
0
0
0
0
0
2
51
183
93
139
152
19
0
0
0
0
0
0
0
0
0
0
14
140
157
88
181
66
3
0
0
0
0
0
0
0
0
0
0
32
195
205
36
1
1
1
0
0
0
0
0
0
23
101
155
238
189
216
214
136
62
6
0
0
0
0
0
0
5
60
134
202
222
187
238
163
104
27
0
0
0
0
0
0
0
0
0
26
191
196
49
1
1
0
0
0
0
0
1
59
158
154
124
187
60
114
185
128
170
117
21
0
0
0
0
19
114
171
128
180
132
56
178
131
151
163
65
1
0
0
0
0
0
0
0
38
192
168
100
3
1
1
0
0
0
0
46
164
119
34
108
149
15
59
174
36
64
154
120
9
0
0
6
112
159
70
35
174
74
14
145
117
31
112
165
55
0
0
0
0
0
0
1
96
169
119
170
30
1
1
0
0
0
17
146
130
12
28
173
92
0
13
147
100
0
56
173
84
2
1
75
174
65
0
93
147
13
0
90
181
38
7
118
147
20
0
0
0
0
0
23
163
119
51
153
128
24
1
0
0
0
72
173
37
23
128
148
19
0
0
75
171
75
9
110
157
14
8
143
114
8
68
169
84
0
0
15
140
133
27
31
167
82
0
0
0
0
19
123
158
55
0
47
155
141
37
6
2
5
128
137
39
141
158
47
0
0
0
10
103
170
96
49
168
41
36
169
58
91
170
110
12
0
0
0
42
149
144
46
130
131
5
2
5
33
137
158
51
26
0
0
43
141
163
135
94
86
178
196
164
143
44
1
0
0
0
0
5
93
167
165
216
125
126
218
165
171
101
8
0
0
0
0
1
35
139
168
198
182
86
93
134
163
145
49
0
0
0
0
0
12
57
108
146
168
210
147
58
13
0
0
0
0
0
0
0
2
28
90
206
187
187
206
94
32
3
0
0
0
0
0
0
0
11
53
150
213
168
148
110
61
14
0
0
0
0
0
0
0
0
2
14
26
143
112
0
0
0
0
0
0
0
0
0
0
0
20
168
70
72
173
24
0
0
0
0
0
0
0
0
0
0
0
108
147
27
15
2
0
0
0
0
0
0
0
0
0
0
0
0
0
102
157
11
0
0
0
0
0
0
0
0
0
0
61
167
25
15
160
75
0
0
0
0
0
0
0
0
0
0
7
145
111
0
0
0
0
0
0
0
0
0
0
0
0
0
0
0
0
44
170
79
1
0
0
0
0
0
0
0
0
21
146
125
7
4
112
150
25
0
0
0
0
0
0
0
0
1
72
173
56
0
0
0
0
0
0
0
0
0
0
0
0
0
0
0
0
2
103
166
52
2
0
0
0
0
0
0
8
107
167
41
0
0
35
160
116
11
0
0
0
0
0
0
2
43
161
109
3
0
0
0
0
0
0
0
0
0
0
0
0
0
0
0
0
0
12
124
169
89
11
0
0
0
2
38
126
164
70
0
0
0
0
60
163
132
44
2
0
0
0
10
85
166
132
17
0
0
0
0
0
0
0
0
0
0
0
0
0
0
0
0
0
0
0
10
93
170
149
120
104
109
129
168
146
49
2
0
0
0
0
1
43
142
170
132
110
104
119
147
171
99
0
0
0
0
0
0
0
0
0
0
0
0
0
0
0
0
0
0
0
0
0
0
0
135
173
213
235
228
196
154
116
0
0
0
0
0
0
0
102
115
152
194
227
235
216
175
137
0
0
0
0
0
0
0
0
0
0
0
0
0
0
0
0
0
0
0
0
0
0
0
0
0
0
0
0
0
0
0
0
0
0
0
0
0
0
0
0
0
0
0
0
0
0
0
0
0
0
0
0
0
0
0
0
0
0
0
0
0
0
0
0
0
0
0
0
0
0
0
0
0
0
0
0
0
0
0
0
0
0
0
0
0
0
0
0
0
0
0
0
0
0
0
0
0
0
0
0
0
0
0
0
0
0
0
0
0
0
0
0
0
0
0
0
0
0
0
0
0
0
0
0
0
0
0
0
0
0
0
0
0
0
0
0
0
0
0
0
0
0
0
0
0
0
0
0
0
0
0
0
0
0
0
0
0
0
0
0
0
0
0
0
0
0
0
0
0
0
0
0
0
0
0
0
0
0
0
0
0
0
0
0
0
0
0
0
0
0
0
0
0
0
0
0
0
0
0
0
0
0
0
0
0
0
0
0
0
0
0
0
0
0
0
0
0
0
0
0
0
0
0
0
0
0
0
0
0
0
0
0
0
0
0
0
0
0
0
0
0
0
0
0
0
0
0
0
0
0
0
0
0
0
0
0
0
0
0
0
0
0
0
0
0
0
0
0
0
0
0
0
0
0
0
0
0
0
0
0
0
0
0
0
0
0
0
0
0
0
0
0
0
0
0
0
0
0
0
0
0
0
0
0
0
0
0
0
0
0
0
0
0
0
0
0
0
0
0
0
0
0
0
0
0
0
0
0
0
0
0
0
0
0
0
0
0
0
0
0
0
0
0
0
0
0
0
0
0
0
0
0
0
0
0
0
0
0
0
0
0
0
0
0
0
0
0
0
0
0
0
0
0
0
0
0
0
0
0
0
0
0
0
0
0
0
0
0
0
0
0
0
0
0
0
0
0
0
0
0
0
0
0
0
0
0
0
0
0
0
0
0
0
0
0
0
0
0
0
0
0
0
0
0
0
0
0
0
0
0
0
0
0
0
0
0
0
0
0
0
0
0
0
0
0
0
0
0
0
0
0
0
0
0
0
0
0
0
0
0
0
0
0
0
0
0
0
0
0
0
0
0
0
0
0
0
0
0
0
0
0
0
0
0
0
0
0
0
0
0
0
0
0
0
0
0
0
0
0
0
0
0
0
0
0
0
0
0
0
0
0
0
0
0
0
0
0
0
0
0
0
0
0
0
0
0
0
0
0
0
0
0
0
0
0
0
0
0
0
0
0
0
0
0
0
0
0
0
0
0
0
0
0
0
0
0
0
0
0
0
0
0
0
0
0
0
0
0
0
0
0
0
0
0
0
0
0
0
0
0
0
0
0
0
0
0
0
0
